<svg width="3264" height="4111" viewBox="0 0 3264 4111" fill="none" xmlns="http://www.w3.org/2000/svg">
<path d="M2751.95 1150.42C2751.95 1150.42 2585.61 756.835 2218.28 698.212C1850.95 639.589 1594.53 924.153 1323.95 1069.93C1182.42 1146.23 1020.72 1116.63 870.445 1153.55C390.245 1272.03 209.224 2012.33 409.372 2433.71C582.626 2798.19 887.614 2987.71 1351.95 3031.45C1816.29 3075.19 2141.84 3126.17 2557.87 2769.01C2973.9 2411.84 2946.02 1667.91 2751.95 1150.42Z" fill="#EF4832"/>
<path opacity="0.8" d="M2751.95 1150.42C2751.95 1150.42 2585.61 756.835 2218.28 698.212C1850.95 639.589 1594.53 924.153 1323.95 1069.93C1182.42 1146.23 1020.72 1116.63 870.445 1153.55C390.245 1272.03 209.224 2012.33 409.372 2433.71C582.626 2798.19 887.614 2987.71 1351.95 3031.45C1816.29 3075.19 2141.84 3126.17 2557.87 2769.01C2973.9 2411.84 2946.02 1667.91 2751.95 1150.42Z" fill="white"/>
<path d="M2325.08 2452.62H2458.97L2887.33 2818.75" stroke="#263238" stroke-miterlimit="10"/>
<path d="M2462.17 2452.62V952.765" stroke="#263238" stroke-miterlimit="10"/>
<path d="M955.701 2452.62H801.314L395.207 2784.22" stroke="#263238" stroke-miterlimit="10"/>
<path d="M801.312 2452.62V952.765" stroke="#263238" stroke-miterlimit="10"/>
<path d="M413.617 2287.77L530.534 2201.28V1630.92L413.617 1704.59V2287.77Z" stroke="#263238" stroke-miterlimit="10"/>
<path d="M525.181 1633.96L504.748 1645.3C489.342 1678.19 474.785 1730.9 464.927 1763.54C451.206 1808.52 434.02 1851.7 413.617 1892.46V1920.66C438.998 1873.19 460.104 1822.31 476.547 1768.96C496.653 1701.21 513.561 1653.94 525.181 1633.96Z" fill="#263238"/>
<path d="M466.624 2002.47C451.479 2002.47 439.141 2039.88 439.141 2086C439.141 2120.86 446.191 2150.71 456.113 2163.21V2256.03L470.018 2244.61V2168.96C483.466 2163.54 493.911 2128.59 493.911 2086.17C493.911 2079.51 493.911 2073.1 493.127 2066.85L530.337 2018.58V1993.1L490.32 2044.98C485.751 2019.57 476.873 2002.47 466.624 2002.47Z" fill="#263238"/>
<path d="M448.673 1953.46C436.187 1971.4 424.484 1990.17 413.617 2009.7V2037.99C426.588 2011.55 441.399 1986.62 457.877 1963.5C490.558 1914.93 515.255 1858.67 530.534 1797.99V1741.67C516.498 1815.99 491.823 1891.06 448.673 1953.46Z" fill="#263238"/>
<path d="M613.699 2145.28L731.725 2048.35V1040L613.699 1059.4V2145.28Z" stroke="#263238" stroke-miterlimit="10"/>
<path d="M708.943 1167.52C717.174 1167.42 725.161 1163.99 731.726 1157.74V1136.36C729.087 1140.94 725.675 1144.72 721.735 1147.44C717.796 1150.15 713.427 1151.73 708.943 1152.07C706.571 1152.06 704.214 1151.59 701.958 1150.67V1044.61L689.686 1046.58V1141.21C677.935 1127.07 670.102 1100.93 670.102 1071.57C670.084 1064.21 670.609 1056.86 671.668 1049.62L649.082 1053.32V1263.47C646.771 1262.79 644.406 1262.43 642.031 1262.41C636.672 1262.68 631.415 1264.35 626.587 1267.29C621.758 1270.23 617.461 1274.39 613.961 1279.51V1304.17C622.97 1287.15 632.566 1277.95 642.031 1277.95C644.443 1278 646.829 1278.59 649.082 1279.67V1830.55C646.825 1831.61 644.439 1832.16 642.031 1832.19C632.566 1832.19 622.97 1822.98 613.961 1806.04V1830.71C617.461 1835.83 621.758 1839.99 626.587 1842.93C631.415 1845.87 636.672 1847.53 642.031 1847.81C644.406 1847.79 646.771 1847.43 649.082 1846.74V1920.74C632.305 1922.8 619.836 1954.53 619.836 1996.22C619.836 2037.9 632.305 2069.72 649.082 2071.78V2116.26L661.289 2106.15V2067.75C673.496 2057.64 681.787 2030.34 681.787 1996.22C681.787 1962.1 673.496 1934.88 661.289 1924.77V1840.17C674.028 1827.85 683.922 1811.47 689.947 1792.72V2082.88L702.219 2072.85V1751.7C729.375 1623.04 729.375 1487.67 702.219 1359.01V1166.87C704.439 1167.36 706.69 1167.58 708.943 1167.52V1167.52ZM648.82 2056.4C641.248 2053.36 631.848 2031.16 631.848 1996.47C631.848 1961.77 641.248 1939.65 648.82 1936.61V2056.4ZM689.686 1750.79C681.46 1783.11 671.538 1806.87 661.028 1820.19V1290.85C671.538 1304.17 681.46 1327.94 689.686 1360.25V1750.79ZM689.686 1317.99C683.661 1299.24 673.767 1282.86 661.028 1270.55V1107.17C664.643 1129.14 674.926 1148.47 689.686 1161.03V1317.99Z" fill="#263238"/>
<path d="M2639.34 1802.34L2522.42 1706.31V1034.49L2639.34 1053.73V1802.34Z" stroke="#263238" stroke-miterlimit="10"/>
<path d="M2628.89 1789.44L2639.34 1797.58V1759.18L2628.89 1789.44Z" fill="#263238"/>
<path d="M2568.84 1569.83L2525.95 1709.11L2536.46 1717.25L2568.84 1612.09V1742.57L2580.98 1752.03V1572.7L2639.34 1383.02V1340.68L2580.98 1530.36V1344.95L2639.34 1148.45V1104.79L2580.98 1301.3V1044.19L2568.84 1042.14V1342.16L2522.42 1498.38V1542.04L2568.84 1385.82V1569.83Z" fill="#263238"/>
<path d="M2565.51 1221.13C2565.51 1271.61 2557.28 1312.56 2547.1 1312.56C2536.91 1312.56 2528.69 1271.45 2528.69 1221.13C2528.69 1170.81 2536.91 1129.79 2547.1 1129.79C2557.28 1129.79 2565.51 1170.73 2565.51 1221.13Z" fill="#263238"/>
<path d="M2616.03 1612.75C2616.03 1629.19 2609.51 1643.17 2601.08 1643.17C2592.66 1643.17 2586.07 1629.52 2586.07 1612.75C2586.07 1595.97 2592.6 1582.24 2601.08 1582.24C2609.57 1582.24 2616.03 1595.89 2616.03 1612.75Z" fill="#263238"/>
<path d="M413.617 1645.96L530.534 1575.91V1072.97L413.617 1092.13V1645.96Z" stroke="#263238" stroke-miterlimit="10"/>
<path d="M482.486 1342.65V1080.86L470.344 1082.84V1379.57L530.532 1303.76V1282.14L482.486 1342.65Z" fill="#263238"/>
<path d="M413.617 1278.77V1301.46C438.946 1336.4 461.01 1385.49 450.239 1443.13C441.904 1484.77 429.607 1524.99 413.617 1562.92V1595.81C435.082 1549.25 451.38 1499.2 462.055 1447.07C475.503 1374.72 444.364 1316.59 413.617 1278.77Z" fill="#263238"/>
<path d="M462.251 1537.51C461.981 1562.5 465.989 1587.26 474.001 1610.11L530.534 1576.24V1425.2C526.026 1422.29 521.042 1420.74 515.976 1420.68C486.274 1420.68 462.251 1472.89 462.251 1537.51Z" fill="#263238"/>
<path d="M2857.96 2276.75L2741.04 2180.72V1072.97L2857.96 1092.13V2276.75Z" stroke="#263238" stroke-miterlimit="10"/>
<path d="M2857.96 1163.41C2852.35 1175.83 2845.82 1190.71 2838.9 1207.57L2770.03 1185.28V1077.74L2757.89 1075.68V1197.21L2833.22 1221.87C2805.74 1290.61 2773.81 1385.74 2764.67 1475.52C2756.78 1553.14 2772.12 1617.43 2787 1679.67C2804.23 1751.61 2820.36 1819.45 2803.65 1907.59L2741.04 1869.35V1886.37L2800.58 1922.71C2792.4 1959.56 2781.78 1995.48 2768.85 2030.09L2741.04 2009.79V2027.46L2763.56 2043.91C2756.12 2062.82 2748.48 2080.08 2741.04 2095.87V2124.81C2753.09 2101.18 2764.11 2076.75 2774.07 2051.64L2835.05 2096.2C2820.77 2138.01 2803.83 2178.29 2784.39 2216.65L2794.51 2224.87C2814.06 2186.28 2831.13 2145.78 2845.56 2103.76L2857.96 2112.81V2094.97L2850.32 2089.37C2852.93 2081.15 2855.48 2072.93 2857.96 2064.71V2016.69C2852.74 2039.06 2846.21 2061.09 2839.68 2081.65L2779.3 2037.49C2792.42 2002.58 2803.23 1966.36 2811.61 1929.21L2857.89 1957.41V1940.39L2814.81 1914.08C2833.28 1820.6 2815.72 1746.52 2798.55 1674.9C2784.06 1614.23 2769.05 1551.57 2776.62 1477.08C2785.69 1388.04 2817.88 1293.16 2845.16 1225.41L2857.89 1229.52V1213.73L2850.84 1211.43L2857.89 1194.99L2857.96 1163.41Z" fill="#263238"/>
<path d="M2839.68 1658.21C2845.88 1678.69 2852.22 1699.82 2858.03 1721.93V1676.05L2850.98 1652.62C2830.09 1583.56 2811.81 1523.95 2827.15 1461.13C2834.69 1430.93 2845.03 1401.95 2857.96 1374.8V1345.28C2839.78 1379.79 2825.5 1417.31 2815.53 1456.77C2799.21 1524.69 2818.79 1589.56 2839.68 1658.21Z" fill="#263238"/>
<path d="M2784.13 1812.79C2784.13 1794.37 2777.93 1779.9 2770.29 1779.9C2762.65 1779.9 2756.52 1794.78 2756.52 1812.79C2756.52 1830.79 2762.72 1846.17 2770.29 1846.17C2777.86 1846.17 2784.13 1831.29 2784.13 1812.79Z" fill="#263238"/>
<path d="M955.699 747.298V3294.14H2298.18V683.495" fill="white"/>
<path d="M955.699 747.298V3294.14H2298.18V683.495" stroke="#263238" stroke-miterlimit="10"/>
<path d="M2073.16 974.8H1150.1V2732.42H2073.16V974.8Z" fill="white"/>
<path opacity="0.18" d="M2073.16 974.8H1150.1V2732.42H2073.16V974.8Z" fill="black"/>
<path d="M2073.16 974.8H1695.71V2732.42H2073.16V974.8Z" fill="#263238" stroke="#263238" stroke-miterlimit="10"/>
<path d="M2073.16 1584.3H1150.1V2122.92H2073.16V1584.3Z" fill="#263238"/>
<path d="M1876.21 974.8H1842.33V2732.42H1876.21V974.8Z" fill="#EF4832"/>
<path d="M1440.99 974.8H1407.11V2732.42H1440.99V974.8Z" fill="#263238"/>
<path d="M1209.83 2699.53C1209.6 2699.53 1209.36 2699.46 1209.15 2699.33C1208.93 2699.2 1208.74 2699.02 1208.59 2698.79C1207.07 2697.07 1205.87 2694.95 1205.08 2692.57C1204.29 2690.2 1203.93 2687.63 1204.02 2685.06C1204.05 2684.79 1204.11 2684.53 1204.22 2684.29C1204.32 2684.05 1204.47 2683.84 1204.64 2683.67C1204.81 2683.5 1205 2683.38 1205.21 2683.31C1205.42 2683.23 1205.64 2683.22 1205.85 2683.25C1206.27 2683.31 1206.66 2683.58 1206.93 2683.99C1207.19 2684.41 1207.32 2684.94 1207.29 2685.47C1207.25 2687.49 1207.57 2689.5 1208.22 2691.35C1208.88 2693.2 1209.85 2694.84 1211.07 2696.16C1211.37 2696.54 1211.54 2697.06 1211.54 2697.6C1211.54 2698.14 1211.37 2698.65 1211.07 2699.04C1210.72 2699.39 1210.28 2699.57 1209.83 2699.53V2699.53Z" fill="#263238"/>
<path d="M1217.93 2709.31H1215.12C1214.78 2709.22 1214.47 2708.99 1214.24 2708.67C1214.01 2708.34 1213.86 2707.94 1213.81 2707.5C1213.56 2703.56 1214.36 2699.62 1216.1 2696.32C1216.94 2694.89 1217.54 2693.25 1217.85 2691.51C1218.17 2689.77 1218.19 2687.96 1217.93 2686.21C1217.27 2682.92 1216.29 2681.85 1215.77 2681.69C1215.25 2681.52 1215.45 2681.69 1215.18 2681.69C1214.84 2682.48 1214.65 2683.37 1214.65 2684.28C1214.65 2685.18 1214.84 2686.07 1215.18 2686.87C1215.37 2687.36 1215.4 2687.93 1215.27 2688.45C1215.13 2688.97 1214.85 2689.4 1214.47 2689.66C1214.27 2689.79 1214.06 2689.86 1213.84 2689.88C1213.62 2689.9 1213.4 2689.86 1213.19 2689.76C1212.98 2689.67 1212.79 2689.53 1212.63 2689.34C1212.47 2689.15 1212.34 2688.93 1212.25 2688.68C1211.53 2687.26 1211.15 2685.62 1211.15 2683.95C1211.15 2682.27 1211.53 2680.63 1212.25 2679.22C1212.67 2678.47 1213.27 2677.89 1213.95 2677.55C1214.63 2677.22 1215.38 2677.14 1216.1 2677.33C1217.34 2677.33 1219.56 2679.14 1220.73 2684.98C1221.08 2687.21 1221.06 2689.51 1220.69 2691.74C1220.32 2693.97 1219.6 2696.09 1218.58 2697.97C1217.49 2700.13 1216.8 2702.57 1216.56 2705.12C1221.32 2705.61 1223.08 2702.98 1224.52 2697.56C1224.6 2697.3 1224.71 2697.07 1224.86 2696.87C1225.01 2696.68 1225.19 2696.52 1225.38 2696.41C1225.58 2696.3 1225.79 2696.23 1226.01 2696.23C1226.22 2696.22 1226.44 2696.27 1226.64 2696.36C1226.84 2696.46 1227.03 2696.61 1227.18 2696.79C1227.34 2696.98 1227.47 2697.2 1227.55 2697.45C1227.64 2697.7 1227.69 2697.97 1227.7 2698.24C1227.7 2698.51 1227.66 2698.78 1227.59 2699.04C1227.12 2701.86 1225.92 2704.41 1224.17 2706.28C1222.41 2708.14 1220.22 2709.21 1217.93 2709.31V2709.31Z" fill="#263238"/>
<path d="M1229.28 2699.28C1228.45 2699.32 1227.61 2699.11 1226.84 2698.68C1226.07 2698.26 1225.39 2697.62 1224.85 2696.82C1223.35 2693.41 1222.56 2689.57 1222.56 2685.68C1222.56 2681.78 1223.35 2677.94 1224.85 2674.53C1225.03 2674.18 1225.31 2673.92 1225.63 2673.79C1225.76 2673.51 1225.93 2673.26 1226.15 2673.08C1226.36 2672.89 1226.61 2672.77 1226.87 2672.73C1229.43 2672.32 1232.03 2673.09 1234.18 2674.9C1236.33 2676.72 1237.88 2679.45 1238.55 2682.59C1239.39 2685.38 1239.38 2688.46 1238.52 2691.23C1237.67 2694.01 1236.03 2696.29 1233.92 2697.64C1232.49 2698.62 1230.91 2699.18 1229.28 2699.28V2699.28ZM1226.67 2680.21C1226 2682.45 1225.7 2684.84 1225.8 2687.23C1225.9 2689.63 1226.4 2691.97 1227.26 2694.1C1228.31 2695.58 1230.13 2695.5 1232.68 2694.1C1234.05 2693.14 1235.11 2691.59 1235.65 2689.74C1236.18 2687.88 1236.17 2685.84 1235.62 2683.99C1235.23 2682.02 1234.35 2680.27 1233.1 2678.99C1231.85 2677.71 1230.3 2676.99 1228.7 2676.92C1228.66 2677.33 1228.66 2677.74 1228.7 2678.15C1228.75 2678.69 1228.64 2679.23 1228.38 2679.66C1228.13 2680.09 1227.75 2680.37 1227.33 2680.45C1227.11 2680.53 1226.88 2680.5 1226.67 2680.37V2680.21Z" fill="#263238"/>
<path d="M1185.48 2694.1C1182.99 2694.68 1180.42 2694.31 1178.11 2693.03C1177.05 2692.26 1175.93 2691.63 1174.78 2691.14C1173.67 2691.14 1173.08 2692.13 1171.9 2690.24L1171.19 2689.01C1170.79 2688.35 1170.73 2687.53 1171.19 2687.2C1172.37 2683.58 1172.95 2679.68 1172.88 2675.77C1172.75 2669.92 1173.14 2664.07 1174.06 2658.34C1175.3 2649.54 1179.93 2620.76 1186.27 2622C1189.2 2622.57 1190.64 2626.35 1189.14 2644.44C1188.37 2656.02 1185.93 2667.33 1181.96 2677.82C1180.48 2680.53 1179.73 2683.75 1179.8 2687.03H1180.19C1181.37 2688.35 1183.33 2688.35 1185.81 2687.03C1188.29 2685.72 1188.22 2683.25 1188.75 2678.81C1189.27 2674.37 1189.59 2672.31 1191.94 2671.25C1194.29 2670.18 1196.58 2672.15 1198.47 2674.21L1199.65 2675.44C1200.17 2675.44 1201.8 2672.15 1203.3 2668.04C1203.3 2668.04 1203.3 2668.04 1204.09 2664.09C1204.54 2660.78 1205.38 2657.57 1206.57 2654.56L1207.29 2653.24C1208.59 2652.72 1209.97 2652.55 1211.33 2652.75C1211.62 2652.98 1211.84 2653.32 1211.95 2653.72C1212.07 2654.12 1212.08 2654.56 1211.99 2654.97C1211.99 2655.79 1211.53 2657.1 1211.4 2657.84C1211.27 2658.58 1211.4 2659.41 1212.05 2659.49L1213.81 2658.83C1215.51 2658.35 1217.08 2657.35 1218.39 2655.92C1219.71 2654.48 1220.71 2652.66 1221.32 2650.61C1222.64 2646.6 1224.92 2643.21 1227.85 2640.91L1234.38 2636.14C1235.88 2634.99 1235.68 2631.37 1237.58 2630.63C1241.23 2629.15 1239.21 2638.19 1238.16 2639.76C1235.91 2642.36 1233.36 2644.53 1230.59 2646.17C1228.46 2647.9 1226.82 2650.43 1225.89 2653.4C1225.01 2656.25 1223.59 2658.78 1221.76 2660.79C1219.93 2662.79 1217.74 2664.21 1215.38 2664.91L1214.34 2665.33C1212.59 2664.84 1210.79 2664.84 1209.05 2665.33C1207.74 2672.31 1206.44 2679.55 1202.52 2681.28C1201.36 2681.57 1200.15 2681.5 1199.01 2681.07C1197.87 2680.64 1196.84 2679.86 1195.99 2678.81L1195.34 2678.07C1194.88 2677.66 1194.36 2678.07 1194.23 2678.97V2680.37C1194.21 2682.93 1193.65 2685.44 1192.61 2687.64C1191.56 2689.83 1190.07 2691.64 1188.29 2692.87L1185.48 2694.1ZM1184.63 2638.03C1184.63 2634.58 1183.72 2635.23 1182.48 2639.51C1180.82 2646.01 1179.58 2652.66 1178.76 2659.41C1177.78 2666.23 1177.71 2667.13 1177.71 2667.13C1177.71 2671.66 1178.56 2671.99 1179.87 2667.71C1182.11 2660 1183.55 2651.96 1184.18 2643.78L1184.63 2638.03Z" fill="#263238"/>
<path d="M1658.63 974.8H1624.75V2732.42H1658.63V974.8Z" fill="#263238"/>
<path d="M1883.59 1815.58C1867.53 1765.1 1811.39 1704.5 1763.28 1674.16C1715.17 1643.82 1651 1689.37 1651 1689.37C1661.96 1670.7 1669.75 1649.38 1673.9 1626.75C1678.04 1604.12 1678.45 1580.66 1675.08 1557.82C1663.01 1482.1 1630.96 1482.1 1614.9 1451.76C1598.84 1421.42 1590.87 1391.16 1558.76 1340.68C1526.64 1290.2 1490.6 1325.47 1454.31 1320.45C1418.01 1315.44 1374.08 1274.99 1325.97 1274.99C1277.86 1274.99 1241.76 1330.57 1241.76 1330.57C1241.76 1330.57 1221.72 1340.68 1197.63 1355.81C1173.54 1370.94 1189.6 1421.58 1225.7 1461.87C1261.8 1502.16 1265.78 1527.65 1281.84 1512.35C1297.9 1497.06 1281.84 1471.98 1245.74 1436.63C1209.64 1401.28 1273.81 1411.39 1301.88 1411.39C1329.95 1411.39 1394.12 1542.94 1402.15 1573.03C1410.18 1603.13 1458.29 1694.23 1490.41 1855.87C1522.53 2017.51 1526.51 2214.51 1530.49 2386.19C1533.88 2532.21 1560.45 2689.09 1568.35 2732.83H1604.06C1600.53 2699.94 1593.35 2645.68 1582.65 2618.54C1566.59 2578.17 1578.6 2502.37 1582.65 2411.43C1586.7 2320.5 1618.75 2275.11 1630.76 2179.16C1642.77 2083.21 1634.74 2032.64 1686.9 1911.45C1739.06 1790.26 1775.62 1800.62 1843.51 1815.58C1872.82 1822.16 1887.24 1832.03 1892.99 1837.95C1889.09 1831.05 1885.92 1823.53 1883.59 1815.58Z" fill="#EF4832"/>
<path d="M1457.38 2732.99H1494.91C1496.22 2637.29 1499.42 2318.11 1482.44 2275.27C1462.4 2224.71 1406.26 2209.5 1382.17 2179.32L1334.06 2118.65C1334.06 2118.65 1350.12 2224.71 1382.17 2265.16C1414.23 2305.61 1418.27 2340.89 1418.27 2361.11C1418.27 2381.34 1454.5 2441.93 1462.27 2512.64C1468.28 2563.62 1461.55 2674.78 1457.38 2732.99Z" fill="#EF4832"/>
<path d="M1302.07 1411.55C1302.07 1411.55 1351.16 1411.55 1366.18 1449.79C1381.19 1488.02 1399.99 1549.19 1448.89 1563.33C1497.78 1577.47 1546.81 1624.91 1550.33 1643.82C1553.86 1662.74 1572.85 1634.37 1599.16 1639.06C1625.47 1643.74 1629.26 1695.87 1655.56 1653.28C1681.87 1610.69 1666.86 1553.96 1644.27 1521.07C1621.68 1488.18 1557.84 1412.21 1546.35 1383.84C1534.86 1355.48 1497.52 1341.25 1463.71 1350.96C1429.89 1360.66 1414.88 1322.59 1354.75 1322.59C1294.63 1322.59 1241.75 1354.33 1302.07 1411.55Z" fill="#263238"/>
<path d="M1651.58 1700.89C1651.58 1700.89 1639.38 1826.76 1641.99 1853.65C1644.6 1880.54 1678.41 1762.06 1708.51 1733.77C1755.57 1689.46 1847.49 1765.35 1847.49 1765.35C1847.49 1765.35 1780.9 1668.57 1732.92 1668.57C1690.75 1668.57 1681.42 1674.25 1651.58 1700.89Z" fill="#263238"/>
<path d="M1426.95 2357.33C1426.95 2357.33 1463.32 2309.4 1461.62 2278.81C1459.92 2248.22 1416.57 2226.52 1394.05 2211.22C1371.53 2195.93 1347.31 2156.71 1347.31 2156.71C1347.31 2156.71 1357.82 2219.94 1381.98 2246.09C1406.13 2272.23 1418.34 2274.45 1421.8 2296.32C1425.26 2318.19 1420.03 2359.71 1426.95 2357.33Z" fill="#263238"/>
<path d="M2073.16 974.8H1150.1V2732.42H2073.16V974.8Z" stroke="#263238" stroke-width="2" stroke-miterlimit="10"/>
<path d="M695.363 2508.12C705.873 2513.88 731.528 2513.22 731.594 2513.22C731.659 2513.22 726.045 2492.01 725.588 2490.69C719.908 2475.89 702.087 2451.31 687.595 2453.77C685.19 2454.26 682.894 2455.39 680.857 2457.07C678.821 2458.75 677.09 2460.96 675.777 2463.54C674.464 2466.13 673.6 2469.03 673.24 2472.07C672.881 2475.1 673.034 2478.2 673.69 2481.15C676.106 2493.81 686.42 2503.19 695.363 2508.12Z" fill="#263238"/>
<path d="M955.307 2515.27C955.307 2515.27 960.007 2493.73 960.138 2492.33C961.966 2475.89 957.853 2443 944.667 2434.78C942.448 2433.54 940.046 2432.89 937.616 2432.89C935.187 2432.88 932.784 2433.52 930.563 2434.76C928.342 2436 926.352 2437.82 924.722 2440.09C923.092 2442.35 921.858 2445.03 921.101 2447.94C917.51 2460.19 922.015 2475.23 927.629 2485.51C933.504 2498.01 955.307 2515.27 955.307 2515.27Z" fill="#263238"/>
<path d="M1032.08 2397.95C1017.52 2395.97 1000.22 2421.13 994.868 2436.18C994.411 2437.41 989.059 2458.79 989.32 2458.79C986.578 2462.74 983.64 2467.01 980.572 2471.78C974.828 2480.58 968.495 2490.61 962.098 2502.12C955.156 2514.41 948.791 2527.2 943.036 2540.43C936.51 2555.19 931.048 2570.66 926.716 2586.64C926.716 2586.64 926.716 2586.64 926.716 2587.22C926.716 2581.87 926.716 2566.74 926.716 2565.59C925.084 2549.15 914.182 2518.89 899.821 2515.52C897.414 2515.06 894.956 2515.23 892.607 2516.04C890.257 2516.85 888.068 2518.26 886.18 2520.2C884.292 2522.14 882.747 2524.55 881.644 2527.28C880.542 2530.02 879.907 2533.01 879.78 2536.08C878.931 2549.07 886.308 2562.06 893.684 2570.28C901.91 2579.49 924.758 2588.45 926.324 2589.11C922.246 2605.54 919.041 2622.29 916.728 2639.26C915.292 2649.13 914.182 2659.08 913.073 2669.11C913.073 2664.5 913.073 2660.31 913.073 2659.73C911.441 2643.29 900.539 2613.03 886.112 2609.75C883.712 2609.27 881.259 2609.43 878.914 2610.23C876.568 2611.03 874.381 2612.44 872.497 2614.37C870.612 2616.3 869.072 2618.71 867.976 2621.44C866.88 2624.17 866.253 2627.16 866.136 2630.22C865.288 2643.21 872.664 2656.2 880.041 2664.42C887.418 2672.64 906.806 2680.87 911.898 2682.92C911.506 2686.79 911.114 2690.57 910.788 2694.43C909.025 2712.93 907.328 2731.43 905.239 2749.52C904.456 2755.85 903.542 2762.1 902.693 2768.35C902.693 2764.24 902.693 2760.7 902.693 2760.13C900.996 2743.68 890.159 2713.42 875.732 2710.14C873.333 2709.66 870.88 2709.82 868.534 2710.62C866.188 2711.42 864.002 2712.83 862.117 2714.76C860.233 2716.69 858.692 2719.1 857.597 2721.83C856.501 2724.56 855.874 2727.55 855.757 2730.61C854.908 2743.6 862.285 2756.59 869.661 2764.81C879.169 2772.82 889.608 2778.93 900.604 2782.9C899.494 2789.23 898.45 2795.64 897.21 2801.73C896.23 2805.84 895.578 2809.95 894.468 2814.06L891.334 2826.15C889.18 2833.79 886.895 2841.69 884.806 2849.01C883.24 2854.19 881.673 2859.04 880.106 2863.89C880.89 2857.56 882.26 2845.14 882.26 2844.07C882.091 2829.63 878.99 2815.47 873.252 2802.96C873.414 2801.35 873.414 2799.72 873.252 2798.11C872.96 2795.07 872.161 2792.14 870.906 2789.52C869.652 2786.89 867.97 2784.63 865.972 2782.88C863.974 2781.14 861.706 2779.94 859.315 2779.38C856.924 2778.81 854.466 2778.89 852.101 2779.61C837.935 2784.38 828.992 2815.62 828.274 2832.07C828.274 2833.05 828.731 2843.66 829.188 2850.32C828.47 2846.46 827.817 2842.67 827.034 2838.73C825.532 2830.51 823.9 2823.02 822.138 2814.56L819.2 2802.39C818.286 2798.28 816.915 2794.16 815.74 2789.89C812.933 2780.27 809.734 2770.65 806.34 2761.11C811.823 2759.47 831.211 2752.89 838.98 2745.74C846.748 2738.58 854.973 2726 854.908 2712.85C854.971 2709.78 854.521 2706.74 853.588 2703.91C852.656 2701.07 851.261 2698.52 849.494 2696.41C847.727 2694.3 845.629 2692.69 843.334 2691.67C841.039 2690.64 838.599 2690.24 836.173 2690.49C821.615 2692.54 808.951 2721.73 806.34 2737.84C806.34 2738.83 805.295 2750.67 804.904 2757.25C802.88 2751.49 800.791 2745.74 798.376 2740.06C791.848 2723.04 784.471 2706.19 777.355 2689.25L783.165 2671.66C791.049 2669.15 798.579 2665.13 805.491 2659.73C813.259 2652.25 821.485 2640 821.419 2626.85C821.473 2623.79 821.016 2620.75 820.079 2617.93C819.143 2615.11 817.746 2612.57 815.981 2610.47C814.215 2608.37 812.12 2606.76 809.829 2605.74C807.539 2604.72 805.105 2604.32 802.684 2604.57C788.127 2606.54 775.462 2635.73 772.851 2651.84C772.851 2653.07 771.415 2670.09 771.284 2674.45C766.715 2663.35 762.211 2652.25 758.228 2640.99C752.624 2625.93 747.847 2610.41 743.932 2594.53C744.846 2594.53 769 2587.38 777.943 2578.75C785.711 2571.27 793.937 2559.02 793.871 2545.86C793.934 2542.8 793.484 2539.75 792.552 2536.92C791.619 2534.09 790.224 2531.53 788.457 2529.42C786.691 2527.32 784.592 2525.7 782.297 2524.68C780.002 2523.66 777.562 2523.25 775.136 2523.5C760.578 2525.55 747.914 2554.74 745.303 2570.85C745.303 2571.92 744.193 2584.91 743.867 2591.08H743.018C739.373 2574.95 736.883 2558.44 735.576 2541.75C734.728 2532.62 734.401 2523.83 734.14 2515.19C738.775 2514.53 759.86 2511 768.543 2504.34C777.225 2497.68 786.168 2486.91 787.213 2474C787.523 2470.98 787.329 2467.91 786.642 2464.98C785.955 2462.06 784.79 2459.35 783.223 2457.03C781.655 2454.71 779.72 2452.82 777.54 2451.5C775.361 2450.17 772.985 2449.43 770.566 2449.33C755.878 2449.33 740.799 2476.63 736.751 2492.25C736.751 2493.16 735.054 2502.12 734.075 2508.7C734.075 2504.83 734.075 2500.89 734.075 2497.1C734.075 2483.21 734.793 2470.38 735.511 2459.12C735.903 2452.7 736.425 2446.87 736.947 2441.44C741.19 2437.82 758.098 2422.78 763.059 2412.01C768.02 2401.23 772.264 2386.35 768.477 2374.18C767.665 2371.3 766.378 2368.66 764.702 2366.45C763.026 2364.23 760.998 2362.48 758.75 2361.32C756.502 2360.15 754.084 2359.6 751.655 2359.69C749.226 2359.78 746.839 2360.52 744.65 2361.85C731.594 2370.07 728.2 2402.96 730.354 2419.41C730.354 2420.8 735.446 2442.35 735.707 2442.18C735.185 2447.36 734.597 2452.95 734.075 2459.12C733.161 2470.38 732.247 2483.21 731.986 2497.19C731.602 2512.27 731.885 2527.36 732.835 2542.41C733.864 2559.25 736.049 2575.95 739.363 2592.31V2592.89C737.012 2588.37 730.223 2575.87 729.636 2574.97C721.084 2562.55 698.758 2544.79 685.245 2552.03C683.035 2553.3 681.063 2555.15 679.458 2557.45C677.852 2559.75 676.65 2562.45 675.93 2565.38C675.209 2568.3 674.986 2571.38 675.275 2574.43C675.564 2577.47 676.359 2580.4 677.608 2583.02C682.569 2594.45 694.515 2600.04 704.177 2601.85C715.078 2603.83 737.992 2595.44 739.819 2594.78C743.573 2611.33 748.218 2627.54 753.724 2643.29C756.858 2652.5 760.252 2661.63 763.777 2670.75C761.688 2666.89 759.795 2663.43 759.469 2662.94C750.917 2650.53 728.591 2632.77 715.144 2640C712.928 2641.27 710.949 2643.11 709.337 2645.41C707.725 2647.71 706.516 2650.41 705.789 2653.33C705.062 2656.26 704.833 2659.34 705.118 2662.39C705.403 2665.43 706.194 2668.37 707.441 2671C712.402 2682.43 724.348 2688.1 734.01 2689.83C743.671 2691.55 763.516 2684.98 768.673 2683.17L772.786 2693.61C779.314 2710.05 785.842 2726.5 792.37 2743.35C794.589 2749.19 796.548 2755.03 798.506 2760.87C796.678 2757.41 795.046 2754.53 794.785 2754.12C786.234 2741.71 763.908 2723.95 750.395 2731.18C748.184 2732.46 746.212 2734.31 744.607 2736.61C743.002 2738.91 741.8 2741.61 741.079 2744.53C740.358 2747.46 740.135 2750.54 740.424 2753.58C740.714 2756.62 741.508 2759.55 742.757 2762.18C747.718 2773.61 759.665 2779.2 769.326 2781.01C780.752 2781.12 792.121 2778.95 803.011 2774.6C804.904 2780.68 806.862 2786.68 808.429 2792.68C809.473 2796.8 810.714 2800.91 811.562 2804.85L814.304 2817.1C815.805 2825.33 817.372 2833.14 818.678 2840.87C819.592 2846.21 820.44 2851.39 821.289 2856.57C819.2 2850.73 814.761 2839.39 814.369 2838.56C807.45 2824.59 787.474 2802.8 773.308 2807.32C770.968 2808.16 768.793 2809.61 766.926 2811.57C765.059 2813.54 763.541 2815.98 762.47 2818.73C761.399 2821.48 760.799 2824.49 760.709 2827.55C760.62 2830.61 761.042 2833.66 761.949 2836.51C765.54 2848.76 776.637 2856.65 785.972 2860.19C795.307 2863.72 819.004 2860.19 821.876 2860.19C823.247 2868.41 824.488 2877.04 825.597 2884.85C829.449 2912.23 832.125 2935.17 833.235 2951.29C833.235 2954.16 833.757 2956.71 833.953 2959.1H789.889L801.574 3246.13L803.076 3283.7C803.192 3286.29 804.087 3288.73 805.579 3290.51C807.07 3292.3 809.047 3293.31 811.105 3293.32H875.928C877.992 3293.33 879.977 3292.33 881.472 3290.54C882.967 3288.75 883.857 3286.3 883.958 3283.7L897.014 2959.1H855.953C856.279 2958.36 856.54 2957.62 856.866 2956.71C862.546 2942 870.314 2920.7 878.735 2894.72C881.477 2886.5 884.154 2877.7 886.895 2868.57C889.702 2869.31 912.224 2875.07 922.734 2872.11C932.265 2869.4 943.819 2862.57 948.063 2850.73C949.146 2847.98 949.757 2844.98 949.854 2841.91C949.952 2838.85 949.534 2835.79 948.628 2832.94C947.722 2830.09 946.348 2827.51 944.597 2825.38C942.846 2823.25 940.757 2821.6 938.466 2820.56C924.627 2814.64 903.411 2834.53 895.643 2847.77C895.186 2848.59 891.008 2857.72 888.397 2863.56C889.506 2859.86 890.616 2856.24 891.726 2852.38C893.946 2844.81 895.969 2837.17 898.254 2828.86C899.168 2824.83 900.147 2820.64 901.126 2816.69C902.106 2812.75 902.824 2808.47 903.738 2803.87C905.631 2793.92 907.132 2783.72 908.503 2773.36C913.791 2775.75 932.722 2784.05 942.514 2783.15C952.306 2782.24 964.448 2777.8 970.062 2766.7C971.465 2764.2 972.433 2761.35 972.901 2758.34C973.369 2755.33 973.328 2752.23 972.779 2749.24C972.231 2746.25 971.188 2743.44 969.719 2741C968.249 2738.55 966.386 2736.52 964.252 2735.05C951.196 2726.83 927.891 2742.2 918.556 2753.79C918.034 2754.53 912.028 2763.83 908.96 2769.01C909.678 2762.76 910.527 2756.59 911.114 2750.26C913.007 2731.43 914.378 2712.36 915.88 2693.28L928.413 2682.67C936.084 2686.04 944.121 2687.9 952.241 2688.18C962.033 2687.36 974.24 2682.84 979.854 2671.74C981.256 2669.24 982.223 2666.39 982.691 2663.39C983.158 2660.39 983.116 2657.29 982.568 2654.31C982.019 2651.33 980.976 2648.53 979.507 2646.09C978.038 2643.65 976.176 2641.63 974.044 2640.17C960.988 2631.94 937.683 2647.24 928.348 2658.91C927.695 2659.73 919.209 2673.14 917.185 2676.67C918.23 2664.17 919.339 2652.01 920.841 2639.59C922.826 2623.16 925.639 2606.9 929.262 2590.92C930.176 2591.33 953.416 2602.35 964.644 2601.36C974.371 2600.54 986.578 2596.01 992.192 2584.91C993.595 2582.41 994.563 2579.56 995.031 2576.55C995.499 2573.54 995.458 2570.44 994.909 2567.45C994.361 2564.46 993.318 2561.65 991.848 2559.21C990.379 2556.76 988.516 2554.74 986.382 2553.26C973.326 2545.04 950.021 2560.41 940.686 2572.01C940.099 2572.83 933.636 2582.94 930.633 2587.87L929.915 2587.38C933.92 2571.43 939.055 2555.97 945.256 2541.17C948.585 2532.95 951.784 2525.31 955.7 2518.07C959.878 2520.62 979.005 2532.38 989.189 2532.87C999.373 2533.36 1011.45 2530.57 1018.04 2520.45C1019.65 2518.15 1020.85 2515.45 1021.57 2512.53C1022.29 2509.6 1022.52 2506.52 1022.23 2503.48C1021.94 2500.43 1021.14 2497.5 1019.89 2494.88C1018.64 2492.25 1016.97 2489.98 1014.97 2488.22C1002.83 2478.03 978.287 2490.28 968.038 2500.56C967.451 2501.13 962.294 2507.55 958.638 2512.31C960.27 2509.11 961.967 2505.65 963.599 2502.61C969.67 2490.94 975.872 2480.82 981.421 2471.86C984.554 2466.76 987.557 2462.32 990.364 2458.13C995.456 2458.13 1016.48 2457.23 1025.29 2451.88C1034.1 2446.54 1044.22 2436.92 1046.37 2424.17C1046.87 2421.26 1046.9 2418.25 1046.44 2415.33C1045.98 2412.41 1045.06 2409.63 1043.72 2407.18C1042.38 2404.72 1040.66 2402.64 1038.65 2401.05C1036.65 2399.46 1034.41 2398.41 1032.08 2397.95ZM870.836 2890.61C862.024 2916.1 853.929 2936.98 848.119 2951.45L844.92 2959.26H843.941C843.68 2956.47 843.354 2953.34 842.962 2949.89C841.199 2933.45 838.392 2910.51 834.019 2882.96C832.713 2874.25 831.081 2864.96 829.384 2855.5C836.225 2852 842.915 2848.05 849.425 2843.66C858.242 2853.2 868.061 2861.17 878.605 2867.34C875.994 2875.4 873.382 2883.29 870.836 2890.61Z" fill="#263238"/>
<path d="M2276.18 3525.51C2389.79 3525.51 2481.88 3484.1 2481.88 3433.01C2481.88 3381.93 2389.79 3340.52 2276.18 3340.52C2162.58 3340.52 2070.48 3381.93 2070.48 3433.01C2070.48 3484.1 2162.58 3525.51 2276.18 3525.51Z" fill="#EF4832"/>
<path opacity="0.5" d="M2276.18 3525.51C2389.79 3525.51 2481.88 3484.1 2481.88 3433.01C2481.88 3381.93 2389.79 3340.52 2276.18 3340.52C2162.58 3340.52 2070.48 3381.93 2070.48 3433.01C2070.48 3484.1 2162.58 3525.51 2276.18 3525.51Z" fill="white"/>
<path d="M2186.88 1673.09C2185.11 1690.03 2181.3 1706.53 2175.58 1722.02C2167.56 1739.86 2159.4 1742.9 2165.27 1747.26C2171.15 1751.61 2175.91 1754.49 2175.91 1754.49C2177.93 1771.89 2180.83 1789.11 2184.59 1806.04C2189.49 1825.12 2188.38 1834 2202.41 1833.75C2216.45 1833.51 2232.77 1818.54 2232.77 1818.54C2232.77 1818.54 2238.38 1790.42 2234.27 1731.47C2233.93 1715.9 2228.8 1701.1 2219.95 1690.2C2211.11 1679.31 2199.25 1673.17 2186.88 1673.09Z" fill="white" stroke="#263238" stroke-miterlimit="10" strokeLinecap="round"/>
<path d="M2257.25 2791.2C2252.18 2853.34 2250 2915.8 2250.72 2978.26C2251.77 3087.11 2238.78 3261.91 2206.46 3295.21C2192.82 3309.35 2191.97 3318.07 2185.57 3326.37C2179.18 3334.68 2146.41 3341.34 2146.73 3357.78C2147.06 3374.23 2148.95 3380.31 2158.81 3388.37C2168.67 3396.43 2202.55 3402.1 2213.97 3401.93C2225.4 3401.77 2236.49 3364.61 2255.82 3343.81C2275.14 3323 2301.51 3311.99 2304.32 3295.87C2308.95 3271.2 2297.79 3247.94 2292.31 3232.31C2280.56 3197.62 2327.17 3127.07 2338 3094.02C2348.84 3060.97 2346.82 2991.16 2341.66 2962.47C2336.5 2933.77 2372.6 2783.23 2372.6 2783.23L2257.25 2791.2Z" fill="white" stroke="#263238" stroke-miterlimit="10" strokeLinecap="round"/>
<path d="M2146.86 3357.78C2146.86 3374.23 2149.08 3380.31 2158.94 3388.37C2168.8 3396.43 2202.68 3402.1 2214.1 3401.93C2225.53 3401.77 2236.62 3364.61 2255.95 3343.81C2275.27 3323 2301.64 3311.99 2304.45 3295.87C2309.09 3271.2 2297.92 3247.94 2292.44 3232.31C2291.8 3230.42 2291.36 3228.43 2291.13 3226.4C2271.66 3228 2252.11 3225.67 2233.23 3219.49C2232.14 3225.52 2230.97 3231.27 2229.7 3236.75C2250.72 3249.33 2281.15 3242.76 2281.15 3242.76C2274.62 3275.64 2241.13 3327.61 2218.35 3329.99C2195.56 3332.38 2185.71 3326.37 2185.71 3326.37C2179.24 3334.68 2146.67 3341.34 2146.86 3357.78Z" fill="#263238" stroke="#263238" stroke-miterlimit="10" strokeLinecap="round"/>
<path d="M2279.51 3302.61L2286.43 3408.76L2293.81 3408.68L2298.64 3295.21L2279.51 3302.61Z" fill="#263238" stroke="#263238" stroke-miterlimit="10" strokeLinecap="round"/>
<path d="M2257.25 2791.2C2252.18 2853.34 2250 2915.8 2250.72 2978.26C2251.49 3053.83 2246.48 3129.33 2235.77 3203.7C2252.74 3214.24 2271.6 3219 2290.48 3217.52C2291.85 3180.27 2328.6 3122.88 2338.26 3094.19C2349.36 3061.3 2347.08 2991.33 2341.92 2962.63C2336.76 2933.94 2372.86 2783.39 2372.86 2783.39L2257.25 2791.2Z" fill="#EF4832"/>
<path opacity="0.2" d="M2257.25 2791.2C2252.18 2853.34 2250 2915.8 2250.72 2978.26C2251.49 3053.83 2246.48 3129.33 2235.77 3203.7C2252.74 3214.24 2271.6 3219 2290.48 3217.52C2291.85 3180.27 2328.6 3122.88 2338.26 3094.19C2349.36 3061.3 2347.08 2991.33 2341.92 2962.63C2336.76 2933.94 2372.86 2783.39 2372.86 2783.39L2257.25 2791.2Z" fill="black"/>
<path d="M2257.25 2791.2C2252.18 2853.34 2250 2915.8 2250.72 2978.26C2251.49 3053.83 2246.48 3129.33 2235.77 3203.7C2252.74 3214.24 2271.6 3219 2290.48 3217.52C2291.85 3180.27 2328.6 3122.88 2338.26 3094.19C2349.36 3061.3 2347.08 2991.33 2341.92 2962.63C2336.76 2933.94 2372.86 2783.39 2372.86 2783.39L2257.25 2791.2Z" stroke="#263238" stroke-miterlimit="10" strokeLinecap="round"/>
<path d="M2214.88 2795.97C2214.88 2795.97 2229.18 2923.09 2244.26 2966C2259.34 3008.92 2285.58 3199.59 2279.64 3257.15C2279.64 3257.15 2254.18 3329.42 2249.48 3350.05C2245.1 3366.93 2239.82 3383.41 2233.68 3399.39C2233.68 3399.39 2196.21 3408.1 2196.6 3443.04C2197 3490.32 2266.91 3468.7 2266.91 3468.7C2275.98 3467.98 2284.45 3462.78 2290.49 3454.23C2296.53 3445.69 2299.64 3434.49 2299.16 3423.07C2299.16 3408.68 2311.56 3361.24 2326.19 3350.71C2340.81 3340.19 2353.8 3337.97 2355.17 3315.36C2356.54 3292.75 2338.39 3264.3 2338.39 3264.3C2338.69 3220.41 2343.77 3176.79 2353.47 3134.64C2369.2 3070.75 2353.47 2990.83 2342.05 2961.98C2330.62 2933.12 2320.44 2917.08 2320.18 2887.98C2319.92 2858.87 2330.76 2797.54 2330.76 2797.54C2330.76 2797.54 2236.1 2797.7 2214.88 2795.97Z" fill="white" stroke="#263238" stroke-miterlimit="10" strokeLinecap="round"/>
<path d="M2320.18 2888.88C2320.18 2860.1 2330.75 2798.44 2330.75 2798.44C2330.75 2798.44 2236.1 2797.78 2214.88 2796.06C2214.88 2796.06 2229.18 2923.17 2244.26 2966.09C2258.03 3005.22 2281.01 3167.2 2280.49 3239.06C2290.28 3245.22 2310.78 3253.03 2339.24 3238.65C2340.9 3203.51 2345.71 3168.73 2353.6 3134.97C2369.34 3071.08 2353.6 2991.16 2342.18 2962.3C2330.75 2933.45 2320.44 2917.66 2320.18 2888.88Z" fill="#EF4832"/>
<path opacity="0.2" d="M2321.88 2861.26C2324.88 2832.07 2330.75 2798.52 2330.75 2798.52C2330.75 2798.52 2236.1 2797.86 2214.88 2796.14C2214.88 2796.14 2218.8 2830.51 2224.61 2869.56C2244.26 2877.7 2276.44 2881.98 2321.88 2861.26Z" fill="black"/>
<path d="M2320.18 2888.88C2320.18 2860.1 2330.75 2798.44 2330.75 2798.44C2330.75 2798.44 2236.1 2797.78 2214.88 2796.06C2214.88 2796.06 2229.18 2923.17 2244.26 2966.09C2258.03 3005.22 2281.01 3167.2 2280.49 3239.06C2290.28 3245.22 2310.78 3253.03 2339.24 3238.65C2340.9 3203.51 2345.71 3168.73 2353.6 3134.97C2369.34 3071.08 2353.6 2991.16 2342.18 2962.3C2330.75 2933.45 2320.44 2917.66 2320.18 2888.88Z" stroke="#263238" stroke-miterlimit="10" strokeLinecap="round"/>
<path d="M2330.95 3338.54L2338.66 3461.63L2346.82 3461.46L2352.04 3330.07L2330.95 3338.54Z" fill="#263238" stroke="#263238" stroke-miterlimit="10" strokeLinecap="round"/>
<path d="M2338.46 3258.79C2298.25 3275.23 2279.71 3257.15 2279.71 3257.15L2278.21 3261.42C2276.77 3265.45 2274.55 3271.95 2271.68 3279.92L2310.85 3291.6C2310.85 3291.6 2274.36 3394.86 2263 3403.25C2251.64 3411.64 2233.62 3399.63 2233.62 3399.63C2233.62 3399.63 2196.15 3408.35 2196.54 3443.29C2196.93 3490.57 2266.85 3468.94 2266.85 3468.94C2275.92 3468.2 2284.39 3462.99 2290.43 3454.43C2296.47 3445.87 2299.58 3434.66 2299.1 3423.23C2299.1 3408.92 2311.5 3361.48 2326.12 3350.96C2340.75 3340.43 2353.74 3338.21 2355.11 3315.6C2356.48 3292.99 2338.33 3264.55 2338.33 3264.55C2338.33 3264.55 2338.4 3262.41 2338.46 3258.79Z" fill="#263238" stroke="#263238" stroke-miterlimit="10" strokeLinecap="round"/>
<path d="M2194.25 1942.94C2194.25 1942.94 2152.34 2063.23 2152.74 2101.63C2153.13 2140.02 2177.74 2284.15 2177.87 2300.02C2178 2315.89 2142.03 2682.18 2135.31 2727.57C2128.58 2772.95 2123.43 2797.7 2123.43 2797.7C2123.43 2797.7 2202.74 2839.47 2270.83 2836.18C2338.91 2832.89 2430.05 2797.62 2430.05 2797.62L2420.78 2766.13C2442 2762.14 2461.49 2749.11 2476 2729.21L2393.68 2364.56C2393.68 2364.56 2378.67 2299.28 2381.8 2247.32C2384.94 2195.36 2417.71 2061.58 2402.43 1967.03C2387.16 1872.48 2319.07 1868.86 2277.88 1878.56C2236.69 1888.26 2204.7 1908.9 2194.25 1942.94Z" fill="#263238" stroke="#263238" stroke-miterlimit="10" strokeLinecap="round"/>
<path d="M2221.93 1533.81C2221.93 1533.81 2200 1566.7 2178.98 1580.19C2157.96 1593.67 2162.79 1602.63 2177.41 1661.42C2192.04 1720.21 2213.51 1760.08 2218.61 1799.63C2223.7 1839.18 2205.55 1909.07 2178.98 1952.23C2152.41 1995.4 2112.39 1973.94 2123.17 1994.41C2133.94 2014.88 2156.2 2019.08 2177.09 1999.51C2197.98 1979.94 2220.56 1883.74 2256.86 1880.21C2293.16 1876.67 2318.74 1943.52 2327.36 1990.63C2335.98 2037.74 2307.26 2172.75 2353.47 2199.14C2407.13 2229.72 2449.5 2161.89 2462.56 2085.67C2476.66 2003.45 2423.39 1929.46 2410.33 1870.51C2397.28 1811.55 2403.41 1761.4 2407.2 1665.37C2410.99 1569.33 2360.26 1531.76 2317.83 1512.85C2275.4 1493.94 2237.08 1521.73 2221.93 1533.81Z" fill="#EF4832"/>
<g opacity="0.2">
<path d="M2256.86 1880.21C2282.65 1877.74 2303.01 1910.79 2315.61 1947.05C2323.51 1903.23 2342.44 1864.83 2369.6 1867.22C2391.99 1869.03 2414.71 1896.98 2431.48 1930.69C2422.89 1911.52 2415.77 1891.37 2410.2 1870.5C2397.86 1816.65 2402.3 1769.87 2406.09 1688.72C2398.52 1714.2 2384.48 1745.37 2358.83 1763.29C2310.45 1797.16 2256.66 1684.28 2256.66 1684.28C2256.66 1684.28 2290.74 1776.86 2299.68 1815.25C2308.63 1853.65 2238.71 1704.59 2249.48 1756.55C2258.17 1798.4 2262.15 1841.65 2254.97 1880.54L2256.86 1880.21Z" fill="black"/>
<path d="M2457.59 2014.39C2462.75 2066.19 2413.79 2159.1 2326.51 2119.96C2327.56 2156.22 2333.56 2188.12 2353.67 2199.55C2407.33 2230.14 2449.7 2162.3 2462.75 2086.09C2468.95 2049.66 2462.1 2014.88 2451.33 1982.41C2454.28 1992.77 2456.38 2003.49 2457.59 2014.39V2014.39Z" fill="black"/>
</g>
<path d="M2221.93 1533.81C2221.93 1533.81 2200 1566.7 2178.98 1580.19C2157.96 1593.67 2162.79 1602.63 2177.41 1661.42C2192.04 1720.21 2213.51 1760.08 2218.61 1799.63C2223.7 1839.18 2205.55 1909.07 2178.98 1952.23C2152.41 1995.4 2112.39 1973.94 2123.17 1994.41C2133.94 2014.88 2156.2 2019.08 2177.09 1999.51C2197.98 1979.94 2220.56 1883.74 2256.86 1880.21C2293.16 1876.67 2318.74 1943.52 2327.36 1990.63C2335.98 2037.74 2307.26 2172.75 2353.47 2199.14C2407.13 2229.72 2449.5 2161.89 2462.56 2085.67C2476.66 2003.45 2423.39 1929.46 2410.33 1870.51C2397.28 1811.55 2403.41 1761.4 2407.2 1665.37C2410.99 1569.33 2360.26 1531.76 2317.83 1512.85C2275.4 1493.94 2237.08 1521.73 2221.93 1533.81Z" stroke="#263238" stroke-miterlimit="10" strokeLinecap="round"/>
<path d="M2208.42 1577.39C2208.42 1577.39 2199.35 1628.2 2244.26 1719.14C2289.17 1810.07 2374.82 1958.48 2375.74 2052.54C2376.65 2146.6 2355.56 2149.31 2355.56 2149.31" stroke="#263238" stroke-width="0.75" stroke-miterlimit="10" strokeLinecap="round"/>
<path d="M2265.22 1528.31C2265.22 1528.31 2224.09 1635.19 2268.94 1721.19C2313.78 1807.2 2420.26 1919.18 2429 2039.63C2437.75 2160.08 2405.57 2189.6 2390.36 2201.85" stroke="#263238" stroke-width="0.75" stroke-miterlimit="10" strokeLinecap="round"/>
<path d="M2333.69 1657.56C2333.69 1657.56 2322.92 1734.84 2366.33 1840.41" stroke="#263238" stroke-width="0.75" stroke-miterlimit="10" strokeLinecap="round"/>
<path d="M2342.18 1546.39C2342.18 1546.39 2394.4 1574.6 2385.46 1663.97C2376.52 1753.34 2375.34 1811.31 2391.01 1847.24" stroke="#263238" stroke-width="0.75" stroke-miterlimit="10" strokeLinecap="round"/>
<path d="M2213.97 1760.66C2213.97 1760.66 2235.45 1803.74 2235.84 1842.3C2236.23 1880.86 2211.55 1908.08 2211.55 1908.08" stroke="#263238" stroke-width="0.75" stroke-miterlimit="10" strokeLinecap="round"/>
<path d="M2436.18 2311.94C2435.73 2262.61 2414.05 2246.74 2383.31 2217.88C2352.56 2189.03 2342.7 2079.1 2333.24 2022.78C2323.77 1966.46 2304.91 1889.33 2277.88 1878.48C2250.85 1867.63 2227.94 1901.83 2227.94 1901.83C2164.88 2060.84 2180.87 2428.7 2184.72 2453.44C2188.58 2478.19 2199.41 2487.07 2254.84 2474.99C2310.26 2462.9 2390.88 2452.62 2423 2431.82C2455.11 2411.02 2436.64 2361.61 2436.18 2311.94ZM2318.68 2194.04C2293.68 2207.94 2220.76 2238.36 2220.76 2238.36L2193.86 2238.77C2193.86 2238.77 2195.63 2051.31 2207.64 1992.11C2219.65 1932.91 2235.45 1899.12 2271.48 1914.33C2307.52 1929.54 2315.28 1997.29 2323.05 2058.13C2330.82 2118.97 2343.55 2180.06 2318.55 2194.04H2318.68Z" fill="white"/>
<path opacity="0.2" d="M2391.66 2225.61C2395.39 2231.45 2399.45 2236.94 2403.8 2242.06C2421.76 2262.37 2416.34 2312.03 2416.34 2341.38C2416.34 2370.73 2394.86 2400.08 2341.07 2418.17C2287.28 2436.26 2230.09 2442.84 2226.31 2436.26C2222.52 2429.68 2264.36 2267.22 2273.11 2215.66C2247 2227.42 2220.37 2238.36 2220.37 2238.36L2193.47 2238.77C2193.47 2238.77 2193.93 2187.55 2196.15 2130.24C2192.69 2137.8 2188.64 2148 2184.2 2160.41C2175.85 2302.08 2182.44 2438.65 2184.72 2453.44C2188.57 2478.11 2199.41 2487.07 2254.83 2474.99C2310.26 2462.9 2390.88 2452.62 2423 2431.82C2455.11 2411.02 2436.64 2361.61 2436.05 2311.94C2435.79 2266.89 2417.9 2249.95 2391.66 2225.61Z" fill="black"/>
<path d="M2436.18 2311.94C2435.73 2262.61 2414.05 2246.74 2383.31 2217.88C2352.56 2189.03 2342.7 2079.1 2333.24 2022.78C2323.77 1966.46 2304.91 1889.33 2277.88 1878.48C2250.85 1867.63 2227.94 1901.83 2227.94 1901.83C2164.88 2060.84 2180.87 2428.7 2184.72 2453.44C2188.58 2478.19 2199.41 2487.07 2254.84 2474.99C2310.26 2462.9 2390.88 2452.62 2423 2431.82C2455.11 2411.02 2436.64 2361.61 2436.18 2311.94ZM2318.68 2194.04C2293.68 2207.94 2220.76 2238.36 2220.76 2238.36L2193.86 2238.77C2193.86 2238.77 2195.63 2051.31 2207.64 1992.11C2219.65 1932.91 2235.45 1899.12 2271.48 1914.33C2307.52 1929.54 2315.28 1997.29 2323.05 2058.13C2330.82 2118.97 2343.55 2180.06 2318.55 2194.04H2318.68Z" stroke="#263238" stroke-miterlimit="10" strokeLinecap="round"/>
<path d="M2397.54 2251.59C2397.54 2251.59 2303.41 2300.93 2214.36 2315.56Z" fill="white"/>
<path d="M2397.54 2251.59C2397.54 2251.59 2303.41 2300.93 2214.36 2315.56" stroke="#263238" stroke-miterlimit="10" strokeLinecap="round"/>
<path d="M2379.65 2267.46L2381.61 2279.22C2381.79 2280.24 2382.14 2281.2 2382.64 2282.04C2383.14 2282.87 2383.78 2283.56 2384.51 2284.06C2385.24 2284.56 2386.05 2284.85 2386.87 2284.93C2387.7 2285 2388.53 2284.85 2389.31 2284.48C2390.58 2283.86 2391.62 2282.69 2392.27 2281.18C2392.91 2279.68 2393.12 2277.93 2392.84 2276.26L2390.94 2264.42C2390.78 2263.32 2390.41 2262.28 2389.87 2261.39C2389.33 2260.5 2388.64 2259.79 2387.84 2259.3C2387.04 2258.81 2386.16 2258.57 2385.27 2258.59C2384.38 2258.6 2383.51 2258.88 2382.72 2259.41C2381.56 2260.11 2380.62 2261.29 2380.06 2262.76C2379.5 2264.22 2379.36 2265.88 2379.65 2267.46V2267.46Z" fill="white" stroke="#263238" stroke-miterlimit="10" strokeLinecap="round"/>
<path d="M2146.01 2338.83C2146.01 2338.83 2105.93 2463.64 2104.43 2493.07C2102.93 2522.51 2139.81 2637.04 2139.81 2637.04C2139.81 2637.04 2142.95 2582.78 2146.34 2557.95C2149.74 2533.12 2138.57 2494.8 2138.57 2494.8L2205.48 2376.16L2146.01 2338.83Z" fill="white" stroke="#263238" stroke-miterlimit="10" strokeLinecap="round"/>
<path d="M2094.12 2432.81C2093.52 2432.06 2092.8 2431.49 2092.01 2431.15C2091.21 2430.81 2090.37 2430.7 2089.54 2430.84C2088.7 2430.97 2087.91 2431.35 2087.21 2431.93C2086.51 2432.51 2085.92 2433.29 2085.5 2434.21C2084.32 2436.23 2083.69 2438.68 2083.69 2441.19C2083.69 2443.71 2084.32 2446.15 2085.5 2448.18C2091.37 2456.9 2111.94 2481.07 2113.96 2469.31C2115.4 2460.76 2101.56 2441.93 2094.12 2432.81Z" fill="white" stroke="#263238" stroke-miterlimit="10" strokeLinecap="round"/>
<path d="M2099.08 2403.54C2098.58 2402.52 2097.91 2401.66 2097.11 2401.01C2096.32 2400.36 2095.42 2399.93 2094.48 2399.76C2093.55 2399.58 2092.59 2399.67 2091.68 2400.01C2090.77 2400.35 2089.93 2400.94 2089.22 2401.73C2087.42 2403.51 2086.12 2405.97 2085.5 2408.75C2084.87 2411.53 2084.97 2414.48 2085.76 2417.19C2090.14 2429.11 2107.11 2463.64 2111.87 2451.64C2115.92 2442.67 2105.09 2416.61 2099.08 2403.54Z" fill="white" stroke="#263238" stroke-miterlimit="10" strokeLinecap="round"/>
<path d="M2104.04 2385.04C2103.55 2383.93 2102.86 2382.98 2102.03 2382.26C2101.19 2381.54 2100.24 2381.08 2099.24 2380.9C2098.24 2380.73 2097.22 2380.85 2096.27 2381.25C2095.31 2381.65 2094.44 2382.33 2093.73 2383.23C2091.87 2385.07 2090.52 2387.61 2089.89 2390.48C2089.25 2393.35 2089.36 2396.39 2090.2 2399.18C2094.71 2411.51 2112.33 2447.44 2117.62 2434.95C2121.6 2425.49 2110.24 2398.6 2104.04 2385.04Z" fill="white" stroke="#263238" stroke-miterlimit="10" strokeLinecap="round"/>
<path d="M2120.88 2370.98C2120.59 2369.76 2120.09 2368.65 2119.4 2367.73C2118.71 2366.8 2117.87 2366.09 2116.93 2365.64C2115.98 2365.19 2114.97 2365.03 2113.97 2365.16C2112.97 2365.28 2112.01 2365.7 2111.16 2366.37C2109.04 2367.69 2107.3 2369.81 2106.19 2372.43C2105.07 2375.06 2104.64 2378.06 2104.95 2381.01C2107.24 2394.33 2118.01 2434.21 2125.52 2423.43C2130.87 2415.46 2124.6 2386.02 2120.88 2370.98Z" fill="white" stroke="#263238" stroke-miterlimit="10" strokeLinecap="round"/>
<path d="M2291.33 1979.86C2291.33 1979.86 2284.8 1887.36 2249.29 1890.16C2222.2 1892.29 2201.11 1915.73 2190.93 1976.9C2180.74 2038.07 2171.34 2205.22 2162.92 2239.26C2154.5 2273.3 2128.06 2346.15 2128.06 2346.15C2128.06 2346.15 2158.74 2370.81 2180.29 2386.02C2194.8 2395.71 2210.72 2401.61 2227.09 2403.37C2227.09 2403.37 2240.61 2317.37 2245.44 2260.8C2250.27 2204.24 2279.12 2030.01 2284.6 2027.63" fill="#263238"/>
<path d="M2291.33 1979.86C2291.33 1979.86 2284.8 1887.36 2249.29 1890.16C2222.2 1892.29 2201.11 1915.73 2190.93 1976.9C2180.74 2038.07 2171.34 2205.22 2162.92 2239.26C2154.5 2273.3 2128.06 2346.15 2128.06 2346.15C2128.06 2346.15 2158.74 2370.81 2180.29 2386.02C2194.8 2395.71 2210.72 2401.61 2227.09 2403.37C2227.09 2403.37 2240.61 2317.37 2245.44 2260.8C2250.27 2204.24 2279.12 2030.01 2284.6 2027.63" stroke="#263238" stroke-miterlimit="10" strokeLinecap="round"/>
<path d="M2253.79 2213.2C2253.79 2213.2 2278.93 2064.79 2281.8 2046.13" stroke="white" stroke-width="0.75" stroke-miterlimit="10" strokeLinecap="round"/>
<path d="M2271.48 2109.03L2299.03 2053.69" stroke="white" stroke-width="0.75" stroke-miterlimit="10" strokeLinecap="round"/>
</svg>
